<svg width="16" height="17" viewBox="0 0 16 17" fill="none" xmlns="http://www.w3.org/2000/svg">
<path d="M10.5225 11.51C10.2463 11.51 10.0225 11.7338 10.0225 12.01V13.5106C10.0225 14.2358 9.74501 14.5143 9.02246 14.5143H3.02246C2.29991 14.5143 2.02246 14.2358 2.02246 13.5106L2.02246 3.51064C2.02246 2.7823 2.27966 2.53209 3.03676 2.51043C3.69504 2.49161 5.69389 2.49161 9.0196 2.51063C9.74632 2.51064 10.0225 2.78678 10.0225 3.51064V6.01064C10.0225 6.28678 10.2463 6.51064 10.5225 6.51064C10.7986 6.51064 11.0225 6.28678 11.0225 6.01064V3.51064C11.0225 2.2345 10.2986 1.51064 9.02246 1.51064C5.68437 1.49154 3.68322 1.49154 3.00817 1.51084C1.72216 1.54762 1.02246 2.22833 1.02246 3.51064L1.02246 13.5106C1.02246 14.7873 1.74682 15.5143 3.02246 15.5143H9.02246C10.2981 15.5143 11.0225 14.7873 11.0225 13.5106V12.01C11.0225 11.7338 10.7986 11.51 10.5225 11.51Z" fill="url(#paint0_linear_331_4065)"/>
<path d="M12.1669 7.36221C11.9728 7.16585 11.9745 6.84927 12.1709 6.65511C12.3672 6.46094 12.6838 6.46272 12.878 6.65907L14.8557 8.65907C15.0483 8.85387 15.0483 9.16741 14.8557 9.36221L12.878 11.3622C12.6838 11.5586 12.3672 11.5603 12.1709 11.3662C11.9745 11.172 11.9728 10.8554 12.1669 10.6591L13.3026 9.51064H8.52246C8.24632 9.51064 8.02246 9.28678 8.02246 9.01064C8.02246 8.7345 8.24632 8.51064 8.52246 8.51064L13.3026 8.51064L12.1669 7.36221Z" fill="url(#paint1_linear_331_4065)"/>
<defs>
<linearGradient id="paint0_linear_331_4065" x1="1.02246" y1="1.49634" x2="15.0403" y2="15.474" gradientUnits="userSpaceOnUse">
<stop stop-color="#4E19EB"/>
<stop offset="1" stop-color="#3A9FFF"/>
</linearGradient>
<linearGradient id="paint1_linear_331_4065" x1="1.02246" y1="1.49634" x2="15.0403" y2="15.474" gradientUnits="userSpaceOnUse">
<stop stop-color="#4E19EB"/>
<stop offset="1" stop-color="#3A9FFF"/>
</linearGradient>
</defs>
</svg>
